# xmcd
#
# Track frame offsets:
#	150
#	24299
#	43123
#	62556
#	77697
#	93264
#	121312
#	141604
#	159867
#
# Disc length: 2382 seconds
#
# Revision: 7
# Processed by: cddbd v1.5.2PL0 Copyright (c) Steve Scherf et al.
# Submitted via: Jack! The Knife
#
DISCID=6b094c09
DTITLE=Judas Priest - Turbo
DYEAR=1986
DGENRE=Heavy Metal
TTITLE0=Turbo Lover
TTITLE1=Locked In
TTITLE2=Private Property
TTITLE3=Parental Guidance
TTITLE4=Rock You All Around The World
TTITLE5=Out In The Cold
TTITLE6=Wild Nights, Hot and Crazy Days
TTITLE7=Hot For Love
TTITLE8=Reckless
EXTD=
EXTT0=
EXTT1=
EXTT2=
EXTT3=
EXTT4=
EXTT5=
EXTT6=
EXTT7=
EXTT8=
PLAYORDER=
